{"title":"24 Hour Party People 2002 480p HDRip XviD titler","uid":10797251,"size":1718027852,"categoryP":"video","categoryS":"movies","magnet":"?xt=urn:btih:cd95c84c87698aa40ad4c299bab98326444d2955&amp;dn=24+Hour+Party+People+2002+480p+HDRip+XviD+titler&amp;tr=udp%3A%2F%2Ftracker.openbittorrent.com%3A80&amp;tr=udp%3A%2F%2Fopen.demonii.com%3A1337&amp;tr=udp%3A%2F%2Ftracker.coppersurfer.tk%3A6969&amp;tr=udp%3A%2F%2Fexodus.desync.com%3A6969","seeders":6,"leechers":1,"uploader":"movieZ.freak","files":25,"time":1408306501,"description":"SOURCE: 24 Hour Party People 2002 720p WEB-DL H264 - brento\n\n\n\n &lt;a href=&quot;\nhttp://www.imdb.com/title/tt0274309/&quot; rel=&quot;nofollow&quot; target=&quot;_NEW&quot;&gt;\nhttp://www.imdb.com/title/tt0274309/&lt;/a&gt;\n\n\n\n &lt;a href=&quot;\nhttp://www.rottentomatoes.com/m/24_hour_party_people/&quot; rel=&quot;nofollow&quot; target=&quot;_NEW&quot;&gt;\nhttp://www.rottentomatoes.com/m/24_hour_party_people/&lt;/a&gt;\n\n\n\n &lt;a href=&quot;\nhttp://en.wikipedia.org/wiki/24_Hour_Party_People&quot; rel=&quot;nofollow&quot; target=&quot;_NEW&quot;&gt;\nhttp://en.wikipedia.org/wiki/24_Hour_Party_People&lt;/a&gt;\n\n\n\n\n- SAMPLE: Yes\n\n\n- SUBTITLE: English\n\n\n- LANGUAGE / AUDIO: English\n\n\n\n\nSCREENSHOTS:\n------------------- &lt;a href=&quot;\nhttp://someimage.com/cXHu&quot; rel=&quot;nofollow&quot; target=&quot;_NEW&quot;&gt;\nhttp://someimage.com/cXHu&lt;/a&gt;\n\n\n\nNOTE:\n-------------\nIncluding soundtrack MP3 320 kbps\n\n &lt;a href=&quot;\nhttp://someimage.com/N3zT&quot; rel=&quot;nofollow&quot; target=&quot;_NEW&quot;&gt;\nhttp://someimage.com/N3zT&lt;/a&gt;\n\n\n********************************************************************\n\nSOUNDTRACK:\n-----------------\n\n01-SEX PISTOLS - Anarchy In The UK - 3:33\n02-HAPPY MONDAYS - 24 Hour Party People (Jon Carter Mix) - 4:30\n03-JOY DIVISION - Transmission - 3:36\n04-BUZZCOCKS - Ever Fallen In Love (With Someone You Shouldn't've) - 2:42\n05-THE CLASH - Janie Jones - 2:06\n06-MOBY &amp; BILLY CORGAN with NEW ORDER - New Dawn Fades - 4:52\n07-JOY DIVISION - Atmosphere - 4:09\n08-THE DURUTTI COLUMN - Otis - 4:16\n09-A GUY CALLED GERALD - Voodoo Ray - 2:43\n10-NEW ORDER - Temptation - 5:44\n11-HAPPY MONDAYS - Loose Fit - 4:17\n12-808 STATE - Pacific State - 3:53\n13-NEW ORDER - Blue Monday - 7:30\n14-MARSHALL JEFFERSON - Move Your Body - 5:15\n15-JOY DIVISION - She's Lost Control - 4:44\n16-HAPPY MONDAYS - Hallelujah (Club Mix) - 5:40\n17-17-NEW ORDER - Here To Stay - 4:58\n18-18-JOY DIVISION - Love Will Tear Us Apart - 3:24\n\n********************************************************************\n\n\nDIRECTOR: Michael Winterbottom\n &lt;a href=&quot;\nhttp://www.imdb.com/name/nm0935863/&quot; rel=&quot;nofollow&quot; target=&quot;_NEW&quot;&gt;\nhttp://www.imdb.com/name/nm0935863/&lt;/a&gt;\n\n\n\nCAST: Steve Coogan, Paddy Considine, Shirley Henderson, Andy Serkis, Simon Pegg, Keith Allen, Rob Brydon, Sean Harris, Lennie James, Martin Hancock,...\n\n\nPLOT:\n-----------\nSpanning from the 1970's to early 1990's, this is the story of the Manchester music scene... Tony Wilson is an ambitious but frustrated local TV news reporter looking for a way to make his mark. After witnessing a life-changing concert by an unknown band called the Sex Pistols, he persuades his station to televise one of their performances, and soon Manchester's punk groups are clamoring for him to manage them. Riding the wave of a musical revolution, Wilson and his friends create the legendary Factory Records and the Hacienda Club, and bands like Joy Division, New Order, and the Happy Mondays emerge to change the industry forever.\n\n\n************************************\n\n- Duration: 1h 56mn\n\n- Bit rate: 1579 Kbps\n\n- Res: 854 x 462\n\n- AR: 1.85:1\n\n- FPS: 23.976 fps\n\n- Audio: MP3, 2 channels, 128Kbps\n\n************************************\n\n\nGeneral\n--------------\nFormat : AVI\nFormat/Info : Audio Video Interleave\nFile size : 1.40 GiB\nDuration : 1h 56mn\nOverall bit rate : 1716 Kbps\nWriting library : VirtualDub build 35491\n\n\nVideo\n-----------\nFormat : MPEG-4 Visual\nFormat profile : Advanced Simple@L5\nFormat settings, BVOP : 2\nFormat settings, QPel : No\nFormat settings, GMC : No warppoints\nFormat settings, Matrix : Default (H.263)\nCodec ID : XVID\nCodec ID/Hint : XviD\nDuration : 1h 56mn\nBit rate : 1579 Kbps\nWidth : 854 pixels\nHeight : 462 pixels\nDisplay aspect ratio : 1.85:1\nFrame rate : 23.976 fps\nColor space : YUV\nChroma subsampling : 4:2:0\nBit depth : 8 bits\nScan type : Progressive\nCompression mode : Lossy\nBits/(Pixel*Frame) : 0.167\nStream size : 1.29 GiB (92%)\nWriting library : XviD 65\n\n\nAudio\n-----------\nFormat : MPEG Audio\nFormat version : Version 1\nFormat profile : Layer 3\nMode : Joint stereo\nMode extension : MS Stereo\nCodec ID : 55\nCodec ID/Hint : MP3\nDuration : 1h 56mn\nBit rate mode : Constant\nBit rate : 128 Kbps\nChannel(s) : 2 channels\nSampling rate : 48.0 KHz\nCompression mode : Lossy\nStream size : 107 MiB (7%)\nAlignment : Split accross interleaves\nInterleave, duration : 42 ms (1.00 video frame)\nInterleave, preload duration : 500 ms\nWriting library : LAME3.99r","torrent":{"xt":"urn:btih:cd95c84c87698aa40ad4c299bab98326444d2955","amp;dn":"24+Hour+Party+People+2002+480p+HDRip+XviD+titler","amp;tr":["udp%3A%2F%2Ftracker.openbittorrent.com%3A80","udp%3A%2F%2Fopen.demonii.com%3A1337","udp%3A%2F%2Ftracker.coppersurfer.tk%3A6969","udp%3A%2F%2Fexodus.desync.com%3A6969"],"infoHash":"cd95c84c87698aa40ad4c299bab98326444d2955","infoHashBuffer":{"type":"Buffer","data":[205,149,200,76,135,105,138,164,10,212,194,153,186,185,131,38,68,77,41,85]},"announce":[],"urlList":[]}}